<?xml version="1.0" encoding="UTF-8" standalone="no"?>
<!DOCTYPE svg PUBLIC "-//W3C//DTD SVG 1.1//EN" "http://www.w3.org/Graphics/SVG/1.1/DTD/svg11.dtd">
<svg width="100%" height="100%" viewBox="0 0 64 64" version="1.1" xmlns="http://www.w3.org/2000/svg" xmlns:xlink="http://www.w3.org/1999/xlink" xml:space="preserve" xmlns:serif="http://www.serif.com/" style="fill-rule:evenodd;clip-rule:evenodd;stroke-linecap:round;stroke-linejoin:round;stroke-miterlimit:1.5;">
    <rect id="cutthecord_purple" x="0" y="0" width="64" height="64" style="fill:none;"/>
    <g id="outline">
        <path d="M47.683,17.516c0,0 2.273,-3.122 3.218,-4.419c0.255,-0.351 0.729,-0.462 1.114,-0.261c0.726,0.479 1.839,1.421 2.09,3.183c0.387,2.704 -1.4,5.504 -1.4,5.504l-5.022,-4.007Z" style="fill:none;stroke:#000;stroke-width:2px;"/>
        <path d="M19.426,4.203c1.019,-0.196 2.072,-0.121 3.054,0.217c2.687,0.894 8.432,2.953 13.009,5.027c5.731,2.597 11.626,6.589 14.999,9.026c1.685,1.229 3.02,2.878 3.872,4.783c0.883,1.898 2.334,4.61 4.543,7.375c1.138,1.424 1.988,2.834 2.622,4.127c1.579,3.288 0.922,7.214 -1.64,9.81c-2.595,2.604 -6.434,5.874 -10.799,7.697c-6.373,2.662 -11.716,3.35 -17.257,1.957c-7.293,-1.833 -20.116,-7.622 -26.512,-13.923c-3.395,-3.345 -4.466,-8.046 -3.12,-16.895c0.975,-6.414 3.187,-8.382 3.187,-8.382c0,0 -0.283,-0.566 -0.564,-1.128c-0.325,-0.649 -0.153,-1.437 0.413,-1.892c1.78,-1.414 5.697,-4.386 9.071,-5.9c2.318,-1.041 4.017,-1.601 5.122,-1.899Z" style="fill:none;stroke:#000;stroke-width:2px;"/>
    </g>
    <g id="Layer1">
        <path d="M47.683,17.516c0,0 2.273,-3.122 3.218,-4.419c0.255,-0.351 0.729,-0.462 1.114,-0.261c0.726,0.479 1.839,1.421 2.09,3.183c0.387,2.704 -1.4,5.504 -1.4,5.504l-5.022,-4.007Z" style="fill:#4e0f86;"/>
        <path d="M19.426,4.203c1.019,-0.196 2.072,-0.121 3.054,0.217c2.687,0.894 8.432,2.953 13.009,5.027c5.731,2.597 11.626,6.589 14.999,9.026c1.685,1.229 3.02,2.878 3.872,4.783c0.883,1.898 2.334,4.61 4.543,7.375c1.138,1.424 1.988,2.834 2.622,4.127c1.579,3.288 0.922,7.214 -1.64,9.81c-2.595,2.604 -6.434,5.874 -10.799,7.697c-6.373,2.662 -11.716,3.35 -17.257,1.957c-7.293,-1.833 -20.116,-7.622 -26.512,-13.923c-3.395,-3.345 -4.466,-8.046 -3.12,-16.895c0.975,-6.414 3.187,-8.382 3.187,-8.382c0,0 -0.283,-0.566 -0.564,-1.128c-0.325,-0.649 -0.153,-1.437 0.413,-1.892c1.78,-1.414 5.697,-4.386 9.071,-5.9c2.318,-1.041 4.017,-1.601 5.122,-1.899Z" style="fill:#8d26e7;"/>
        <clipPath id="_clip1">
            <path d="M19.426,4.203c1.019,-0.196 2.072,-0.121 3.054,0.217c2.687,0.894 8.432,2.953 13.009,5.027c5.731,2.597 11.626,6.589 14.999,9.026c1.685,1.229 3.02,2.878 3.872,4.783c0.883,1.898 2.334,4.61 4.543,7.375c1.138,1.424 1.988,2.834 2.622,4.127c1.579,3.288 0.922,7.214 -1.64,9.81c-2.595,2.604 -6.434,5.874 -10.799,7.697c-6.373,2.662 -11.716,3.35 -17.257,1.957c-7.293,-1.833 -20.116,-7.622 -26.512,-13.923c-3.395,-3.345 -4.466,-8.046 -3.12,-16.895c0.975,-6.414 3.187,-8.382 3.187,-8.382c0,0 -0.283,-0.566 -0.564,-1.128c-0.325,-0.649 -0.153,-1.437 0.413,-1.892c1.78,-1.414 5.697,-4.386 9.071,-5.9c2.318,-1.041 4.017,-1.601 5.122,-1.899Z"/>
        </clipPath>
        <g clip-path="url(#_clip1)">
            <path d="M4.598,14.959c0,0 5.066,-3.29 10.958,1.307c5.893,4.596 10.316,15.775 10.316,15.775l3.654,-4.361c0,0 4.244,2.475 10.726,7.308c2.862,2.133 7.694,7.772 8.882,11.034c2.231,6.126 0.053,7.703 0.053,7.703l16.23,-2.837l0.057,-16.607l0,-28.877l-44.788,-5.068l-18.622,7.19l2.534,7.433Z" style="fill:#a049eb;"/>
            <path d="M52.006,18.821c-4.463,-2.442 -9.897,-3.15 -15.345,1.406c-5.707,4.772 -8.669,10.7 -10.747,17.811c-1.548,5.297 -2.535,11.816 1.179,15.635" style="fill:none;stroke:#7115c1;stroke-width:1px;"/>
            <path d="M2.281,18.089c1.6,-2.828 4.871,-4.827 7.633,-4.5c4.259,0.505 8.37,3.632 8.841,15.435c0.242,6.068 -0.901,8.689 -0.901,8.689c1.211,1.427 1.483,4.266 1.004,6.454c-0.642,2.932 -2.649,4.49 -6.174,2.454" style="fill:none;stroke:#7115c1;stroke-width:1px;"/>
            <path d="M26.108,37.651c0,0 2.873,-1.005 8.497,-0.786c5.554,0.216 9.684,2.609 9.684,2.609" style="fill:none;stroke:#7115c1;stroke-width:1px;"/>
            <path d="M62.415,36.105c-1.186,-2.309 -5.43,-2.627 -9.896,-1.15c-5.521,1.825 -13.849,5.573 -12.719,10.728c0.92,4.201 4.872,5.391 8.244,4.458c2.518,-0.696 5.181,-3.251 6.37,-4.501c0.365,-0.386 0.952,-0.46 1.401,-0.177c0.955,0.677 2.696,1.604 4.079,1.053c3.298,-1.315 3.652,-8.209 2.521,-10.411Z" style="fill:#efedef;"/>
            <clipPath id="_clip2">
                <path d="M62.415,36.105c-1.186,-2.309 -5.43,-2.627 -9.896,-1.15c-5.521,1.825 -13.849,5.573 -12.719,10.728c0.92,4.201 4.872,5.391 8.244,4.458c2.518,-0.696 5.181,-3.251 6.37,-4.501c0.365,-0.386 0.952,-0.46 1.401,-0.177c0.955,0.677 2.696,1.604 4.079,1.053c3.298,-1.315 3.652,-8.209 2.521,-10.411Z"/>
            </clipPath>
            <g clip-path="url(#_clip2)">
                <path d="M4.598,14.959c0,0 5.066,-3.29 10.958,1.307c5.893,4.596 10.316,15.775 10.316,15.775l3.654,-4.361c0,0 4.244,2.475 10.726,7.308c2.862,2.133 7.694,7.772 8.882,11.034c2.231,6.126 0.053,7.703 0.053,7.703l16.23,-2.837l0.057,-16.607l0,-28.877l-44.788,-5.068l-18.622,7.19l2.534,7.433Z" style="fill:#fbfbfb;"/>
            </g>
            <path d="M45.884,31.679c0.2,-0.098 0.354,-0.272 0.426,-0.483c0.072,-0.211 0.056,-0.443 -0.043,-0.643c-0.49,-0.974 -1.435,-2.557 -2.875,-2.469c-2.093,0.127 -3.278,1.533 -2.854,3.044c0.584,2.082 2.557,1.721 3.698,1.278c0.603,-0.235 1.209,-0.515 1.648,-0.727Z"/>
            <path d="M55.111,25.08c-0.341,0.164 -1.118,0.661 -0.495,1.989c0.494,1.054 1.209,1.81 2.093,1.269c0.768,-0.471 1.041,-1.528 0.458,-2.279c-0.501,-0.645 -1.775,-1.115 -2.056,-0.979Z"/>
        </g>
        <path d="M30.262,28.659c0.198,-0.331 0.252,-0.729 0.151,-1.102c-0.1,-0.373 -0.348,-0.689 -0.686,-0.876c-1.231,-0.754 -3.038,-1.795 -3.907,-1.85c-1.179,-0.075 -2.173,0.519 -2.935,2.633c-0.763,2.113 -1.594,5.787 -0.936,7.727c0.659,1.941 4.584,2.718 4.584,2.718c0,0 0.68,-2.645 1.669,-5.09c0.674,-1.668 1.49,-3.179 2.06,-4.16Z" style="fill:#4e0f86;"/>
        <clipPath id="_clip3">
            <path d="M30.262,28.659c0.198,-0.331 0.252,-0.729 0.151,-1.102c-0.1,-0.373 -0.348,-0.689 -0.686,-0.876c-1.231,-0.754 -3.038,-1.795 -3.907,-1.85c-1.179,-0.075 -2.173,0.519 -2.935,2.633c-0.763,2.113 -1.594,5.787 -0.936,7.727c0.659,1.941 4.584,2.718 4.584,2.718c0,0 0.68,-2.645 1.669,-5.09c0.674,-1.668 1.49,-3.179 2.06,-4.16Z"/>
        </clipPath>
        <g clip-path="url(#_clip3)">
            <path d="M27.83,34.741c-0.022,-1.568 -0.046,-3.06 -0.541,-6.362c-0.341,-2.27 -0.687,-2.892 -1.811,-2.865c-0.899,0.022 -2.081,1.493 -2.797,5.334c-0.719,3.861 -0.225,4.63 1.399,5.442c1.624,0.812 3.218,1.169 3.218,1.169c0,0 0.547,-1.727 0.532,-2.718Z" style="fill:#260741;"/>
        </g>
        <path d="M57.126,34.843c-1.762,0.024 -4.895,0.838 -6.289,1.964c-1.198,0.969 -0.921,2.509 0.328,3.851c1.249,1.342 3.486,1.84 4.941,1.692c1.234,-0.125 3.313,-1.184 3.678,-2.116c0.322,-0.823 -0.22,-2.774 -0.602,-3.598c-0.612,-1.318 -1.226,-1.804 -2.056,-1.793Z" style="fill:#ca4f5c;"/>
        <clipPath id="_clip4">
            <path d="M57.126,34.843c-1.762,0.024 -4.895,0.838 -6.289,1.964c-1.198,0.969 -0.921,2.509 0.328,3.851c1.249,1.342 3.486,1.84 4.941,1.692c1.234,-0.125 3.313,-1.184 3.678,-2.116c0.322,-0.823 -0.22,-2.774 -0.602,-3.598c-0.612,-1.318 -1.226,-1.804 -2.056,-1.793Z"/>
        </clipPath>
        <g clip-path="url(#_clip4)">
            <path d="M48.882,36.611c0,0 1.56,0.492 3.518,1.634c1.794,1.045 3.799,2.317 3.799,2.317l3.833,-1.643l0.148,-3.113l-2.017,-1.81l-4.798,0.405l-4.483,2.21Z" style="fill:#e68186;"/>
            <path d="M55.96,41.086c-0.074,-0.578 0.113,-1.685 1.889,-2.307c1.455,-0.509 1.94,-0.12 2.04,0.232c0.114,0.404 0.253,0.822 -0.027,1.534c-0.202,0.513 -1.519,1.177 -1.931,1.269c-0.567,0.125 -1.916,-0.303 -1.971,-0.728Z" style="fill:#ca4f5c;"/>
        </g>
        <path d="M9.311,42.442c0,0 3.776,-4.266 6.319,-4.677c1.573,-0.253 2.267,0.371 2.588,1.525c0.198,0.712 0.253,1.627 0.284,2.66c0.082,2.708 -0.903,5.088 -2.462,4.842c-1.559,-0.246 -6.729,-4.35 -6.729,-4.35Z" style="fill:#efedef;"/>
        <path d="M31.251,52.502c0.294,0.021 0.576,-0.118 0.737,-0.365c0.161,-0.246 0.176,-0.56 0.039,-0.82c-0.706,-1.359 -1.834,-3.534 -2.369,-4.872c-0.821,-2.051 -3.662,-2.384 -3.858,0.656c-0.163,2.545 1.232,4.022 3.283,4.843c0.826,0.33 1.572,0.487 2.168,0.558Z" style="fill:#efedef;"/>
        <path d="M30.292,9.814c0,0 -2.721,-0.398 -5.507,-0.133c-2.312,0.221 -4.644,1.327 -4.644,1.327l7.763,3.45c0,0 -0.664,0.597 -1.062,2.521c-0.31,1.496 0.067,2.256 0.067,2.256c0,0 1.985,-0.982 3.469,-1.919c1.884,-1.191 3.032,-2.128 3.032,-2.128" style="fill:none;stroke:#f7f6f7;stroke-width:2px;"/>
    </g>
</svg>
